# xmcd
#
# Track frame offsets: 
#        151
#        14561
#        31036
#        45690
#        61834
#        87511
#        107117
#        123457
#        150884
#        168018
#        186149
#        200360
#        221861
#        244590
#
# Disc length: 3525 seconds
#
# Revision: 0
# Processed by: cddbd v1.5.1PL0 Copyright (c) Steve Scherf et al.
# Submitted via: ExactAudioCopy v0.95a5
#
DISCID=b20dc30e
DTITLE=Hi-Way 13 Blues band - Taxi Driver
DYEAR=2001
DGENRE=Blues
TTITLE0=Everyday
TTITLE1=Taxi Driver
TTITLE2=Walkin' Through the Park
TTITLE3=In the Open
TTITLE4=Who You Running From
TTITLE5=Highway 13
TTITLE6=30 Minutes Till Texas
TTITLE7=Early in the Morning
TTITLE8=The Deal
TTITLE9=Looking Back
TTITLE10=Blues 101
TTITLE11=Pack of Lies
TTITLE12=All For Loving You
TTITLE13=Satisfy Suzie
EXTD=
EXTT0=
EXTT1=
EXTT2=
EXTT3=
EXTT4=
EXTT5=
EXTT6=
EXTT7=
EXTT8=
EXTT9=
EXTT10=
EXTT11=
EXTT12=
EXTT13=
PLAYORDER=
